# xmcd
# 
# Track frame offsets:
#     150
#     23215
#     37644
#     57928
#     78762
#     109261
#     123525
#     144708
#     163680
#     182386
#     219783
#     247652
#     270833
#     290236
# 
# Disc length: 4683
# 
# Revision: 1
# Processed by: cddbd v1.5.2PL0 Copyright (c) Steve Scherf et al.
# Submitted via: fre:ac v1.1beta1pre3
# 
DISCID=b312490e
DTITLE=CANNED HEAT - SONGS FROM THE ROAD
DYEAR=2015
DGENRE=Blues
TTITLE0=ON THE ROAD AGAIN
TTITLE1=TIME WAS
TTITLE2=DON'T KNOW WHERE SHE WENT (SHE SPLIT)
TTITLE3=NIGHTHAWK
TTITLE4=SO SAD (THE WORLD'S IN A TANGLE)
TTITLE5=GOING UP THE COUNTRY
TTITLE6=OAXACA
TTITLE7=CHICKEN SHACK BOOGIE
TTITLE8=FUTURE BLUES
TTITLE9=CRISTO REDENTOR
TTITLE10=AMPHETAMINE ANNIE
TTITLE11=ROLLIN' AND TUMBLIN'
TTITLE12=LET'S WORK TOGETHER
TTITLE13=EURO BOOGIE
EXTD=
EXTT0=
EXTT1=
EXTT2=
EXTT3=
EXTT4=
EXTT5=
EXTT6=
EXTT7=
EXTT8=
EXTT9=
EXTT10=
EXTT11=
EXTT12=
EXTT13=
PLAYORDER=
